<svg width="48" height="48" viewBox="0 0 48 48" fill="none" xmlns="http://www.w3.org/2000/svg">
    <rect x="8" y="4" width="24" height="40" rx="3" fill="white" stroke="#282541"/>
    <path d="M14 4H26L24.5528 6.89443C24.214 7.572 23.5215 8 22.7639 8H17.2361C16.4785 8 15.786 7.572 15.4472 6.89443L14 4Z" fill="#282541"/>
    <path d="M16 40H24" stroke="#282541" stroke-width="1.5" stroke-linecap="round"/>
    <path d="M24 15C24 14.4477 24.4477 14 25 14H34.5858C34.851 14 35.1054 14.1054 35.2929 14.2929L39.7071 18.7071C39.8946 18.8946 40 19.149 40 19.4142V33C40 33.5523 39.5523 34 39 34H25C24.4477 34 24 33.5523 24 33V15Z" fill="white" stroke="#282541"/>
    <rect x="27" y="21" width="10" height="10" rx="2" fill="white" stroke="#13A538"/>
    <path d="M31 21V24C31 24.5523 31.4477 25 32 25H34M37 25H34M34 21V25" stroke="#13A538"/>
    <path d="M33 31L33 28C33 27.4477 32.5523 27 32 27L30 27M27 27L30 27M30 31L30 27" stroke="#13A538"/>
</svg>
