<svg width="48" height="48" viewBox="0 0 48 48" fill="none" xmlns="http://www.w3.org/2000/svg">
    <path fill-rule="evenodd" clip-rule="evenodd" d="M30 33.4981C30 31.7602 31.0418 30.2267 32.4287 29.1794C35.8128 26.6239 38 22.5674 38 18C38 10.268 31.732 4 24 4C16.268 4 10 10.268 10 18C10 22.5674 12.1872 26.6239 15.5713 29.1794C16.9582 30.2267 18 31.7602 18 33.4981C18 35.9845 20.0155 38 22.5019 38H25.4981C27.9845 38 30 35.9845 30 33.4981Z" fill="white"/>
    <path d="M15.5713 29.1794L15.8726 28.7804L15.5713 29.1794ZM32.4287 29.1794L32.1274 28.7804L32.4287 29.1794ZM37.5 18C37.5 22.4039 35.3918 26.3153 32.1274 28.7804L32.73 29.5784C36.2339 26.9325 38.5 22.7308 38.5 18H37.5ZM24 4.5C31.4558 4.5 37.5 10.5442 37.5 18H38.5C38.5 9.99187 32.0081 3.5 24 3.5V4.5ZM10.5 18C10.5 10.5442 16.5442 4.5 24 4.5V3.5C15.9919 3.5 9.5 9.99187 9.5 18H10.5ZM15.8726 28.7804C12.6082 26.3153 10.5 22.4039 10.5 18H9.5C9.5 22.7308 11.7661 26.9325 15.27 29.5784L15.8726 28.7804ZM25.4981 37.5H22.5019V38.5H25.4981V37.5ZM17.5 33.4981C17.5 36.2606 19.7394 38.5 22.5019 38.5V37.5C20.2917 37.5 18.5 35.7083 18.5 33.4981H17.5ZM15.27 29.5784C16.5784 30.5665 17.5 31.9675 17.5 33.4981H18.5C18.5 31.5529 17.3379 29.8869 15.8726 28.7804L15.27 29.5784ZM25.4981 38.5C28.2606 38.5 30.5 36.2606 30.5 33.4981H29.5C29.5 35.7083 27.7083 37.5 25.4981 37.5V38.5ZM32.1274 28.7804C30.6621 29.8869 29.5 31.5529 29.5 33.4981H30.5C30.5 31.9675 31.4216 30.5665 32.73 29.5784L32.1274 28.7804Z" fill="#282541"/>
    <path d="M20 38H28V40C28 40.5523 27.5523 41 27 41H21C20.4477 41 20 40.5523 20 40V38Z" fill="white" stroke="#282541"/>
    <path d="M18 35H30V37C30 37.5523 29.5523 38 29 38H19C18.4477 38 18 37.5523 18 37V35Z" fill="white" stroke="#282541"/>
    <path d="M22 41H26V43C26 43.5523 25.5523 44 25 44H23C22.4477 44 22 43.5523 22 43V41Z" fill="white" stroke="#282541"/>
    <path d="M18.1788 21.5163L24.6279 10.6282C24.7316 10.4531 25 10.5267 25 10.7301V17.9818C25 18.0923 25.0895 18.1818 25.2 18.1818H29.6491C29.804 18.1818 29.9001 18.3504 29.8212 18.4837L23.3721 29.3718C23.2684 29.5469 23 29.4733 23 29.2699V22.0182C23 21.9077 22.9105 21.8182 22.8 21.8182H18.3509C18.196 21.8182 18.0999 21.6496 18.1788 21.5163Z" fill="#13A538"/>
</svg>
