<svg width="48" height="48" viewBox="0 0 48 48" fill="none" xmlns="http://www.w3.org/2000/svg">
    <path d="M9.14645 43.1464C8.95118 43.3417 8.95118 43.6583 9.14645 43.8536C9.34171 44.0488 9.65829 44.0488 9.85355 43.8536L9.14645 43.1464ZM9.85355 43.8536L14.8536 38.8536L14.1464 38.1464L9.14645 43.1464L9.85355 43.8536Z" fill="#282541"/>
    <path d="M38.8536 43.1464C39.0488 43.3417 39.0488 43.6583 38.8536 43.8536C38.6583 44.0488 38.3417 44.0488 38.1464 43.8536L38.8536 43.1464ZM38.1464 43.8536L33.1464 38.8536L33.8536 38.1464L38.8536 43.1464L38.1464 43.8536Z" fill="#282541"/>
    <path d="M39.7336 30.7421L39.0624 9.93552C39.0276 8.85661 38.1429 8 37.0635 8H10.9365C9.85706 8 8.97237 8.85661 8.93756 9.93552L8.26638 30.7421C8.12067 35.2591 11.7429 39 16.2622 39H31.7378C36.2571 39 39.8793 35.2591 39.7336 30.7421Z" fill="white" stroke="#282541" stroke-linecap="round"/>
    <path d="M18 35H30L28.5528 32.1056C28.214 31.428 27.5215 31 26.7639 31H21.2361C20.4785 31 19.786 31.428 19.4472 32.1056L18 35Z" fill="#282541"/>
    <path d="M33.499 21.7796C31.3046 25.6853 28.6587 29.2849 26.7174 31.7385C25.2878 33.5454 22.661 33.5888 21.2183 31.7924C19.375 29.4973 16.8688 26.0609 14.501 21.7796C12.1068 17.4507 10.4203 13.8416 9.36631 11.4119C8.40561 9.19737 8.57158 6.82058 10.8954 6.16688C13.1213 5.54072 17.0543 5 24 5C30.668 5 34.5594 5.49004 36.8294 6.07401C39.3346 6.71851 39.5503 9.2212 38.5218 11.5948C37.3944 14.1966 35.6671 17.9209 33.499 21.7796Z" stroke="#282541"/>
    <circle cx="14" cy="31" r="3" fill="#13A538"/>
    <circle cx="34" cy="31" r="3" fill="#13A538"/>
    <path d="M24 5C15.4124 5 11.7373 5.97425 10.1669 6.84091C9.09463 7.43266 9.00151 8.77532 9.00146 10C9.00146 10 15.0938 8.1078 24 8.1078C32.9062 8.1078 38.9985 10 38.9985 10C38.9985 8.7403 38.8879 7.36503 37.7732 6.77821C36.17 5.93419 32.4802 5 24 5Z" fill="#282541" stroke="#282541"/>
</svg>
