<svg width="30" height="38" viewBox="0 0 30 38" fill="none" xmlns="http://www.w3.org/2000/svg">
    <path d="M11.6 17.5C8.19999 17.5 5.39999 14.7 5.39999 11.3V6.2C5.39999 2.8 8.19999 0 11.6 0C15 0 17.8 2.8 17.8 6.2V11.3C17.8 14.8 15.1 17.5 11.6 17.5ZM11.6 1.1C8.79999 1.1 6.39999 3.4 6.39999 6.3V11.4C6.39999 14.2 8.69999 16.6 11.6 16.6C14.4 16.6 16.8 14.3 16.8 11.4V6.3C16.8 3.4 14.5 1.1 11.6 1.1Z" fill="#282541"/>
    <path d="M15.9 33.5H4.4C2 33.5 0 31.5 0 29.1V23.9C0 22.9 0.599999 21.9 1.8 21C2.8 20.2 4 19.6 5.4 19.2L9.8 18C10.1 17.9 10.4 18.1 10.4 18.4C10.5 18.7 10.3 19 10 19L5.6 20.2C4.4 20.5 3.3 21.1 2.4 21.8C1.7 22.3 1 23.1 1 23.9V29.1C1 30.9 2.5 32.4 4.3 32.4H15.9C16.2 32.4 16.4 32.6 16.4 32.9C16.4 33.3 16.2 33.5 15.9 33.5Z" fill="#282541"/>
    <path d="M20.9 21.9C20.8 21.9 20.7 21.9 20.6 21.8C19.7 21.1 18.6 20.6 17.4 20.2L13 19C12.7 18.9 12.6 18.6 12.6 18.4C12.7 18.1 13 18 13.2 18L17.5 19.2C18.9 19.6 20.1 20.2 21.1 21C21.3 21.2 21.4 21.5 21.2 21.7C21.2 21.8 21 21.9 20.9 21.9Z" fill="#282541"/>
    <path d="M10 19C9.7 19 9.5 18.8 9.5 18.5V17C9.5 16.7 9.7 16.5 10 16.5C10.3 16.5 10.5 16.7 10.5 17V18.5C10.5 18.8 10.2 19 10 19Z" fill="#282541"/>
    <path d="M13.2 19C12.9 19 12.7 18.8 12.7 18.5V17C12.7 16.7 12.9 16.5 13.2 16.5C13.5 16.5 13.7 16.7 13.7 17V18.5C13.7 18.8 13.4 19 13.2 19Z" fill="#282541"/>
    <path d="M14.4 18.8C14.4 19.1 14.2 19.3 13.9 19.3H9.20001C8.90001 19.3 8.70001 19.1 8.70001 18.8C8.70001 18.5 8.90001 18.3 9.20001 18.3H13.9C14.1 18.3 14.4 18.6 14.4 18.8Z" fill="#282541"/>
    <path d="M13.7 6.9C13 6.9 12.5 6.7 12.1 6.5C11.5 6.2 11.1 5.8 10.7 5.4C10.4 5 10.1 4.8 9.70001 4.7C8.80001 4.5 7.70001 5.2 6.30001 6.6C6.10001 6.8 5.80001 6.8 5.60001 6.6C5.40001 6.4 5.40001 6.1 5.60001 5.9C7.20001 4.2 8.70001 3.4 10 3.7C10.7 3.9 11.2 4.3 11.5 4.7C11.8 5 12.1 5.3 12.5 5.5C13.3 5.9 14.5 6.1 16.9 4.7C17.1 4.6 17.5 4.6 17.6 4.9C17.7 5.1 17.7 5.5 17.4 5.6C15.8 6.6 14.6 6.9 13.7 6.9Z" fill="#282541"/>
    <path d="M22.5 37.9C18.4 37.9 15.1 34.6 15.1 30.5C15.1 26.4 18.4 23.1 22.5 23.1C26.6 23.1 29.9 26.4 29.9 30.5C29.9 34.6 26.6 37.9 22.5 37.9ZM22.5 24.1C19 24.1 16.1 27 16.1 30.5C16.1 34 19 36.9 22.5 36.9C26 36.9 28.9 34 28.9 30.5C28.9 27 26 24.1 22.5 24.1Z" fill="#282541"/>
    <path d="M20 21.2L20.4 21.4V21.8C20.4 21.8 21.2 22.5 21.4 23.6L22.5 23.4C22.5 23.4 22.3 22.3 21.2 21.1H20V21.2Z" fill="#282541"/>
    <path d="M11.6001 1.09998C14.0001 1.09998 16.0001 2.69997 16.6001 4.89997C14.4001 6.09997 13.3001 5.89998 12.5001 5.49998C12.0001 5.29998 11.8001 4.99998 11.5001 4.69998C11.1001 4.29998 10.7001 3.79998 10.0001 3.69998C9.00011 3.49998 8.00011 3.89997 6.80011 4.79997C7.40011 2.69997 9.30011 1.09998 11.6001 1.09998Z" fill="white"/>
    <path d="M6.50009 11.3V6.39998C7.80009 5.09998 8.90009 4.49998 9.70009 4.69998C10.1001 4.79998 10.4001 5.09998 10.7001 5.39998C11.0001 5.79998 11.4001 6.19998 12.1001 6.49998C12.5001 6.69998 13.0001 6.89998 13.7001 6.89998C14.5001 6.89998 15.5001 6.69998 16.8001 5.99998C16.8001 6.09998 16.8001 6.19998 16.8001 6.29998V11.4C16.8001 14.2 14.5001 16.6 11.6001 16.6C8.80009 16.5 6.50009 14.2 6.50009 11.3Z" fill="white"/>
    <path d="M11.6001 17.5C11.9001 17.5 12.3001 17.5 12.6001 17.4V18.3H10.4001V17.4C10.9001 17.5 11.2001 17.5 11.6001 17.5Z" fill="white"/>
    <path d="M4.4001 32.5C2.6001 32.5 1.1001 31 1.1001 29.2V24C1.1001 23.2 1.9001 22.4 2.5001 21.9C3.4001 21.2 4.5001 20.7 5.7001 20.3L9.0001 19.4C9.1001 19.4 9.2001 19.5 9.2001 19.5H13.9001C14.0001 19.5 14.1001 19.5 14.1001 19.4L17.3001 20.3C18.5001 20.6 19.5001 21.1 20.4001 21.8C20.5001 21.9 21.0001 22.5 21.3001 23.2C17.8001 23.8 15.1001 26.8 15.1001 30.5C15.1001 31.2 15.2001 31.8 15.4001 32.5H4.4001Z" fill="white"/>
    <path d="M22.5001 24.1C19.0001 24.1 16.1001 27 16.1001 30.5C16.1001 34 19.0001 36.9 22.5001 36.9C26.0001 36.9 28.9001 34 28.9001 30.5C28.9001 27 26.0001 24.1 22.5001 24.1Z" fill="white"/>
    <path d="M22.5 34.7C22.2 34.7 22 34.5 22 34.2V26.9C22 26.6 22.2 26.4 22.5 26.4C22.8 26.4 23 26.6 23 26.9V34.2C23 34.4 22.8 34.7 22.5 34.7Z" fill="#13A538"/>
    <path d="M26.1 31H18.8C18.5 31 18.3 30.8 18.3 30.5C18.3 30.2 18.5 30 18.8 30H26.1C26.4 30 26.6 30.2 26.6 30.5C26.6 30.8 26.4 31 26.1 31Z" fill="#13A538"/>
</svg>
