<svg width="48" height="48" viewBox="0 0 48 48" fill="none" xmlns="http://www.w3.org/2000/svg">
    <circle cx="24" cy="24" r="16" fill="white" stroke="#282541"/>
    <path d="M10.879 14.8412L10.4693 14.5547L9.63777 15.7436L11.0252 15.3194L10.879 14.8412ZM20.0414 8.49348L20.2736 8.05065L20.1038 7.96165L19.9181 8.00892L20.0414 8.49348ZM22.5883 9.33746L22.6814 8.8462L22.5883 9.33746ZM24.8824 9.46135L24.8994 9.96106L24.8824 9.46135ZM26.8236 10.2291L26.3519 10.3951L26.3519 10.3951L26.8236 10.2291ZM25.8779 12.0622L26.2375 12.4096L25.8779 12.0622ZM25.4118 13.7957L25.1448 14.2184L25.4118 13.7957ZM27.6834 13.5314L27.5115 13.0619L27.6834 13.5314ZM32 13.7957L31.6562 14.1586L32 13.7957ZM31.0589 17.8081L31.2729 18.2599L31.0589 17.8081ZM27.9733 18.9433L28.1297 19.4182L27.9733 18.9433ZM25.4919 20.5841L25.0006 20.6773L25.0033 20.6914L25.0068 20.7054L25.4919 20.5841ZM25.4919 20.5841L25.9831 20.4909L25.9804 20.4768L25.9769 20.4628L25.4919 20.5841ZM25.4118 22.2663L25.0679 21.9033H25.0679L25.4118 22.2663ZM24.545 22.1024L24.763 21.6524L24.545 22.1024ZM22.5883 22.2663L22.1794 21.9785L22.5883 22.2663ZM23.8731 25.5086L23.485 25.8238L23.8731 25.5086ZM23.1474 27.2178L23.1601 26.718L23.1474 27.2178ZM17.8824 25.8328L18.2744 25.5225H18.2744L17.8824 25.8328ZM16.7658 23.3175L17.2477 23.1841L16.7658 23.3175ZM15.5295 21.3746L15.68 20.8978L15.5295 21.3746ZM14.3106 21.1338L14.3744 20.6379H14.3744L14.3106 21.1338ZM12.2353 20.0372L11.8264 20.3249H11.8264L12.2353 20.0372ZM12.2177 18.0296L11.7422 17.8748L12.2177 18.0296ZM12.2353 15.5789L12.6775 15.3456H12.6775L12.2353 15.5789ZM34.028 36.4682L34.3416 36.8577L34.6199 36.6335L34.498 36.2977L34.028 36.4682ZM32.9411 34.3034L33.3635 34.0359L32.9411 34.3034ZM27.4283 30.9262L27.279 31.4034L27.2794 31.4036L27.4283 30.9262ZM27.4274 30.926L27.5767 30.4488L27.5762 30.4486L27.4274 30.926ZM26.8236 30.7368L26.9741 30.2601L26.8236 30.7368ZM24.2131 32.0828L24.7044 32.1757H24.7044L24.2131 32.0828ZM23.9999 32.9659L24.4716 33.1319H24.4716L23.9999 32.9659ZM20.7058 35.6409L20.5906 35.1543L20.7058 35.6409ZM19.2414 38.2815L19.7407 38.2558V38.2558L19.2414 38.2815ZM19.7192 38.9917L19.9572 38.552L19.9572 38.552L19.7192 38.9917ZM21.0962 39.7371L20.8582 40.1768L20.928 40.2146L21.006 40.2289L21.0962 39.7371ZM11.2887 15.1278C13.3864 12.1282 16.518 9.90618 20.1647 8.97803L19.9181 8.00892C16.0337 8.99757 12.701 11.3634 10.4693 14.5547L11.2887 15.1278ZM22.6814 8.8462C21.5957 8.6405 20.7937 8.32336 20.2736 8.05065L19.8092 8.93631C20.4185 9.25571 21.3144 9.60499 22.4952 9.82872L22.6814 8.8462ZM24.8654 8.96164C24.2404 8.98289 23.5251 9.00606 22.6814 8.8462L22.4952 9.82872C23.4584 10.0112 24.2725 9.98238 24.8994 9.96106L24.8654 8.96164ZM27.2952 10.0631C27.203 9.80109 27.0715 9.57595 26.8868 9.39733C26.7006 9.21726 26.4846 9.10791 26.2593 9.043C25.8424 8.92289 25.3377 8.94558 24.8654 8.96164L24.8994 9.96106C25.4313 9.94297 25.7522 9.93758 25.9824 10.0039C26.0807 10.0322 26.1436 10.0697 26.1916 10.1162C26.2411 10.1641 26.2992 10.2452 26.3519 10.3951L27.2952 10.0631ZM26.2375 12.4096C26.5083 12.1293 26.8399 11.7891 27.0667 11.4295C27.2957 11.0662 27.4792 10.586 27.2952 10.0631L26.3519 10.3951C26.3883 10.4984 26.3794 10.6445 26.2208 10.8961C26.0599 11.1513 25.8084 11.4145 25.5184 11.7147L26.2375 12.4096ZM25.6788 13.3729C25.5522 13.293 25.5503 13.2511 25.556 13.2696C25.5625 13.2905 25.546 13.2803 25.5808 13.2028C25.6177 13.1205 25.6912 13.0109 25.8127 12.8673C25.9321 12.726 26.0755 12.5772 26.2375 12.4096L25.5184 11.7147C25.3619 11.8767 25.194 12.0502 25.049 12.2216C24.906 12.3908 24.7621 12.5844 24.6682 12.7938C24.5722 13.008 24.5118 13.278 24.6007 13.5654C24.689 13.8503 24.896 14.0613 25.1448 14.2184L25.6788 13.3729ZM27.5115 13.0619C27.0473 13.2319 26.6653 13.3702 26.3326 13.4305C26.0048 13.49 25.8111 13.4565 25.6788 13.3729L25.1448 14.2184C25.5815 14.4942 26.0714 14.4942 26.511 14.4145C26.9458 14.3357 27.4151 14.1622 27.8554 14.0009L27.5115 13.0619ZM32.3439 13.4327C31.5306 12.6622 30.6473 12.4359 29.7909 12.4812C28.9668 12.5249 28.1675 12.8216 27.5115 13.0619L27.8554 14.0009C28.5389 13.7506 29.1956 13.5141 29.8438 13.4798C30.4596 13.4473 31.0648 13.5984 31.6562 14.1586L32.3439 13.4327ZM31.2729 18.2599C31.7454 18.0361 32.2167 17.7994 32.6111 17.5325C33.0014 17.2684 33.3655 16.9428 33.5685 16.5197C33.784 16.0705 33.7891 15.5733 33.5727 15.0474C33.3651 14.5428 32.9552 14.0118 32.3439 13.4327L31.6562 14.1586C32.2213 14.6941 32.5173 15.1105 32.648 15.4279C32.7698 15.724 32.7455 15.9233 32.6669 16.0871C32.5758 16.277 32.381 16.4808 32.0507 16.7043C31.7246 16.925 31.3135 17.1342 30.8448 17.3562L31.2729 18.2599ZM28.1297 19.4182C29.1918 19.0684 30.4131 18.6672 31.2729 18.2599L30.8448 17.3562C30.054 17.7308 28.9009 18.1114 27.8169 18.4684L28.1297 19.4182ZM25.9118 20.0372C25.9118 20.1226 25.8862 20.1877 25.8654 20.2261C25.8455 20.2631 25.8259 20.2835 25.821 20.2884C25.8132 20.2963 25.824 20.284 25.8743 20.2541C25.9718 20.1961 26.1331 20.1213 26.3613 20.0309C26.813 19.852 27.437 19.6463 28.1297 19.4182L27.8169 18.4684C27.1353 18.6929 26.4785 18.9089 25.9931 19.1012C25.7527 19.1964 25.5313 19.2946 25.3633 19.3945C25.2808 19.4435 25.1881 19.5063 25.11 19.5852C25.0423 19.6537 24.9118 19.8083 24.9118 20.0372H25.9118ZM25.9831 20.4909C25.9355 20.2403 25.9118 20.1031 25.9118 20.0372H24.9118C24.9118 20.2216 24.9623 20.4753 25.0006 20.6773L25.9831 20.4909ZM25.9769 20.4628L25.9769 20.4628L25.0068 20.7054L25.0068 20.7054L25.9769 20.4628ZM25.7557 22.6292C26.0928 22.3099 26.1289 21.8344 26.1198 21.5084C26.11 21.1531 26.0365 20.7721 25.9831 20.4909L25.0006 20.6773C25.0573 20.9758 25.113 21.2755 25.1202 21.5362C25.1238 21.6644 25.1145 21.7607 25.0976 21.828C25.081 21.8942 25.0635 21.9075 25.0679 21.9033L25.7557 22.6292ZM24.327 22.5523C24.4985 22.6354 24.7183 22.7441 24.922 22.7986C25.1235 22.8526 25.4732 22.8968 25.7557 22.6292L25.0679 21.9033C25.1114 21.8621 25.1636 21.8444 25.1983 21.8406C25.2225 21.8379 25.2216 21.8436 25.1806 21.8327C25.1416 21.8222 25.0877 21.8026 25.0131 21.77C24.9389 21.7375 24.8584 21.6986 24.763 21.6524L24.327 22.5523ZM22.9972 22.554C23.1026 22.4042 23.1967 22.3353 23.2685 22.3013C23.3398 22.2675 23.4196 22.2537 23.5193 22.2613C23.7472 22.2786 24.0023 22.395 24.327 22.5523L24.763 21.6524C24.479 21.5148 24.0474 21.2985 23.595 21.2642C23.3546 21.2459 23.0958 21.2766 22.8406 21.3974C22.586 21.518 22.3657 21.7137 22.1794 21.9785L22.9972 22.554ZM24.2611 25.1933C23.7875 24.6102 23.3749 24.0116 23.1397 23.4938C22.8846 22.9325 22.9227 22.6599 22.9972 22.554L22.1794 21.9785C21.7656 22.5665 21.9618 23.319 22.2292 23.9074C22.5163 24.5393 22.9903 25.2149 23.485 25.8238L24.2611 25.1933ZM23.1347 27.7177C23.8035 27.7347 24.2951 27.3256 24.5043 26.8136C24.71 26.3103 24.6581 25.6819 24.2611 25.1933L23.485 25.8238C23.636 26.0097 23.6556 26.247 23.5786 26.4353C23.5053 26.6148 23.3601 26.7231 23.1601 26.718L23.1347 27.7177ZM17.4904 26.1432C18.0044 26.7925 18.9596 27.1543 19.931 27.371C20.9337 27.5947 22.0863 27.6909 23.1347 27.7177L23.1601 26.718C22.145 26.6921 21.0635 26.5991 20.1487 26.395C19.2027 26.1839 18.5571 25.8795 18.2744 25.5225L17.4904 26.1432ZM16.284 23.4508C16.5004 24.2328 16.7732 25.2373 17.4904 26.1432L18.2744 25.5225C17.6991 24.7958 17.4683 23.9808 17.2477 23.1841L16.284 23.4508ZM15.3789 21.8514C15.6059 21.9231 15.7599 22.0659 15.8967 22.3218C16.0463 22.6015 16.1501 22.9674 16.284 23.4508L17.2477 23.1841C17.1227 22.7325 16.9912 22.2479 16.7786 21.8503C16.5533 21.429 16.2185 21.0679 15.68 20.8978L15.3789 21.8514ZM14.2468 21.6297C14.6171 21.6774 14.9776 21.7247 15.3789 21.8514L15.68 20.8978C15.1837 20.7411 14.7417 20.6852 14.3744 20.6379L14.2468 21.6297ZM11.8264 20.3249C12.1928 20.8456 12.5828 21.1592 13.0179 21.3481C13.4336 21.5285 13.864 21.5805 14.2468 21.6297L14.3744 20.6379C13.9659 20.5854 13.6797 20.5452 13.416 20.4308C13.1719 20.3248 12.9198 20.141 12.6442 19.7494L11.8264 20.3249ZM11.7422 17.8748C11.5267 18.5371 11.2035 19.4397 11.8264 20.3249L12.6442 19.7494C12.3495 19.3306 12.4507 18.9293 12.6931 18.1843L11.7422 17.8748ZM11.7931 15.8123C12.1667 16.52 11.9868 17.1231 11.7422 17.8748L12.6931 18.1843C12.93 17.4564 13.2688 16.4658 12.6775 15.3456L11.7931 15.8123ZM11.0252 15.3194C11.1614 15.2777 11.2705 15.2834 11.3687 15.3289C11.4727 15.3771 11.6281 15.4997 11.7931 15.8123L12.6775 15.3456C12.4446 14.9043 12.1496 14.5884 11.7888 14.4214C11.4221 14.2516 11.052 14.2654 10.7328 14.3631L11.0252 15.3194ZM33.7144 36.0788C31.0566 38.2192 27.6785 39.5 24 39.5V40.5C27.9149 40.5 31.5125 39.136 34.3416 36.8577L33.7144 36.0788ZM34.498 36.2977C34.27 35.6692 33.9108 34.9 33.3635 34.0359L32.5187 34.5709C33.0284 35.3757 33.3553 36.0802 33.558 36.6388L34.498 36.2977ZM33.3635 34.0359C31.9447 31.7956 30.0521 31.2208 27.5772 30.4489L27.2794 31.4036C29.7877 32.1858 31.3206 32.6792 32.5187 34.5709L33.3635 34.0359ZM27.5776 30.4491L27.5767 30.4488L27.2781 31.4031L27.279 31.4034L27.5776 30.4491ZM27.5762 30.4486C27.3797 30.3874 27.1794 30.3249 26.9741 30.2601L26.673 31.2136C26.8802 31.2791 27.0823 31.3421 27.2785 31.4033L27.5762 30.4486ZM26.9741 30.2601C25.8405 29.902 25.006 29.8877 24.4437 30.3515C24.1718 30.5759 24.0199 30.8704 23.923 31.1492C23.8279 31.423 23.7717 31.726 23.7218 31.99L24.7044 32.1757C24.7577 31.8939 24.8014 31.6681 24.8676 31.4774C24.9321 31.2918 25.0031 31.1864 25.0801 31.1229C25.2156 31.0111 25.5832 30.8695 26.673 31.2136L26.9741 30.2601ZM23.7218 31.99C23.6649 32.2913 23.6135 32.5577 23.5283 32.8L24.4716 33.1319C24.5864 32.8057 24.65 32.4634 24.7044 32.1757L23.7218 31.99ZM23.5283 32.8C23.3175 33.399 23.0105 33.8762 22.5603 34.2553C22.1063 34.6376 21.4783 34.9441 20.5906 35.1543L20.8211 36.1274C21.8158 35.8918 22.5996 35.5295 23.2044 35.0202C23.813 34.5077 24.2118 33.8703 24.4716 33.1319L23.5283 32.8ZM20.5906 35.1543C19.767 35.3494 19.2792 35.9046 19.0184 36.5188C18.7648 37.1158 18.7151 37.7839 18.742 38.3072L19.7407 38.2558C19.7183 37.8195 19.7654 37.3179 19.9388 36.9097C20.1049 36.5186 20.3739 36.2333 20.8211 36.1274L20.5906 35.1543ZM18.742 38.3072C18.7683 38.8174 19.0889 39.2191 19.4811 39.4314L19.9572 38.552C19.8125 38.4736 19.7458 38.3554 19.7407 38.2558L18.742 38.3072ZM19.4811 39.4314L20.8582 40.1768L21.3342 39.2974L19.9572 38.552L19.4811 39.4314ZM24 39.5C23.0388 39.5 22.0984 39.4126 21.1864 39.2453L21.006 40.2289C21.9773 40.407 22.978 40.5 24 40.5V39.5Z" fill="#282541"/>
    <circle cx="35" cy="13" r="7" fill="white" stroke="#282541"/>
    <path d="M33 15.3684L33.5846 14.5175C33.5846 14.5175 34.2276 15.1754 35.0626 15.1754C35.5136 15.1754 35.9228 14.9298 35.9228 14.4211C35.9228 13.3684 33.1002 13.4737 33.1002 11.5877C33.1002 10.6842 33.7432 9.98246 34.6701 9.82456V9H35.3883V9.80702C36.357 9.89474 36.858 10.4474 36.858 10.4474L36.3904 11.3684C36.3904 11.3684 35.8225 10.8246 35.0793 10.8246C34.5783 10.8246 34.1858 11.1316 34.1858 11.5702C34.1858 12.614 37 12.4298 37 14.3947C37 15.2895 36.4071 16.0526 35.3883 16.193V17H34.6701V16.193C33.5929 16.0614 33 15.3684 33 15.3684Z" fill="#13A538"/>
    <circle cx="9.5" cy="29.5" r="5.5" fill="#13A538" stroke="#282541"/>
    <circle cx="9.5" cy="29.5" r="4.5" stroke="white"/>
    <circle cx="38.5" cy="34.5" r="5.5" fill="white" stroke="#282541"/>
    <path d="M37 36.2763L37.4384 35.6382C37.4384 35.6382 37.9207 36.1316 38.547 36.1316C38.8852 36.1316 39.1921 35.9474 39.1921 35.5658C39.1921 34.7763 37.0752 34.8553 37.0752 33.4408C37.0752 32.7632 37.5574 32.2368 38.2526 32.1184V31.5H38.7912V32.1053C39.5177 32.1711 39.8935 32.5855 39.8935 32.5855L39.5428 33.2763C39.5428 33.2763 39.1169 32.8684 38.5595 32.8684C38.1837 32.8684 37.8894 33.0987 37.8894 33.4276C37.8894 34.2105 40 34.0724 40 35.5461C40 36.2171 39.5553 36.7895 38.7912 36.8947V37.5H38.2526V36.8947C37.4447 36.7961 37 36.2763 37 36.2763Z" fill="#13A538"/>
</svg>
