<svg width="48" height="48" viewBox="0 0 48 48" fill="none" xmlns="http://www.w3.org/2000/svg">
    <g clip-path="url(#clip0_309_257)">
        <path d="M41.6095 21.5794L43.0982 16.0012L37.5229 17.5011L41.6095 21.5794ZM15.9703 39.8621L19.7138 44.2575L21.6486 38.8178L15.9703 39.8621ZM14.0119 9.29088L8.3544 10.4424L12.1804 14.7662L14.0119 9.29088ZM13.1284 37.4252C5.71388 31.421 4.57055 20.543 10.5747 13.1284L9.79759 12.4991C3.44584 20.3429 4.65535 31.8506 12.4991 38.2024L13.1284 37.4252ZM34.8715 10.5747C37.2032 12.4629 38.9139 14.8318 39.9778 17.4232L40.9029 17.0434C39.7769 14.3008 37.9661 11.7939 35.5009 9.79759L34.8715 10.5747ZM41.065 26.705C40.6083 29.6041 39.4059 32.4256 37.4252 34.8715L38.2024 35.5009C40.2967 32.9146 41.5695 29.9287 42.0528 26.8606L41.065 26.705ZM37.4252 34.8715C33.1783 40.116 26.4925 42.2237 20.3173 40.8819L20.1049 41.8591C26.6349 43.278 33.7087 41.0501 38.2024 35.5009L37.4252 34.8715ZM10.5747 13.1284C10.7197 12.9494 10.8675 12.7741 11.0179 12.6025L10.266 11.9433C10.1069 12.1247 9.95075 12.31 9.79759 12.4991L10.5747 13.1284ZM17.3227 8.06382C22.9976 5.69208 29.7584 6.43417 34.8715 10.5747L35.5009 9.79759C30.0906 5.41645 22.9377 4.63328 16.9371 7.14116L17.3227 8.06382Z" fill="#282541"/>
        <path d="M39.7929 37.2929L33.7071 31.2071C33.3166 30.8166 32.6834 30.8166 32.2929 31.2071L31.2071 32.2929C30.8166 32.6834 30.8166 33.3166 31.2071 33.7071L37.2929 39.7929C37.6834 40.1834 38.3166 40.1834 38.7071 39.7929L39.7929 38.7071C40.1834 38.3166 40.1834 37.6834 39.7929 37.2929Z" fill="#282541" stroke="#282541"/>
        <circle cx="24" cy="24" r="13" fill="white" stroke="#282541"/>
        <path d="M20 28.7368L21.1691 27.0351C21.1691 27.0351 22.4551 28.3509 24.1253 28.3509C25.0271 28.3509 25.8455 27.8596 25.8455 26.8421C25.8455 24.7368 20.2004 24.9474 20.2004 21.1754C20.2004 19.3684 21.4864 17.9649 23.3403 17.6491V16H24.7766V17.614C26.714 17.7895 27.7161 18.8947 27.7161 18.8947L26.7808 20.7368C26.7808 20.7368 25.6451 19.6491 24.1587 19.6491C23.1566 19.6491 22.3716 20.2632 22.3716 21.1404C22.3716 23.2281 28 22.8596 28 26.7895C28 28.5789 26.8142 30.1053 24.7766 30.386V32H23.3403V30.386C21.1858 30.1228 20 28.7368 20 28.7368Z" fill="#13A538"/>
    </g>
    <defs>
        <clipPath id="clip0_309_257">
            <rect width="48" height="48" fill="white"/>
        </clipPath>
    </defs>
</svg>
