<svg width="48" height="48" viewBox="0 0 48 48" fill="none" xmlns="http://www.w3.org/2000/svg">
    <path d="M6.99422 22.5144C7.60168 20.9958 9.07251 20 10.7081 20H37.2919C38.9275 20 40.3983 20.9958 41.0058 22.5144L41.1417 22.8543C41.7087 24.2717 42 25.7844 42 27.311V31C42 32.6569 40.6569 34 39 34H9C7.34315 34 6 32.6569 6 31V27.311C6 25.7844 6.2913 24.2717 6.85828 22.8543L6.99422 22.5144Z" fill="white" stroke="#282541"/>
    <path d="M12.5926 12L10 20H38L35.4074 12H12.5926Z" fill="white" stroke="#282541" stroke-linecap="round"/>
    <path d="M12.8162 11.0513L12.5 12H35.5L35.1838 11.0513C34.7754 9.82629 33.629 9 32.3377 9H15.6623C14.371 9 13.2246 9.82629 12.8162 11.0513Z" fill="#282541" stroke="#282541" stroke-linecap="round"/>
    <path d="M7 36V34H14V36C14 37.1046 13.1046 38 12 38H9C7.89543 38 7 37.1046 7 36Z" fill="white" stroke="#282541" stroke-linecap="round"/>
    <path d="M41 36V34H34V36C34 37.1046 34.8954 38 36 38H39C40.1046 38 41 37.1046 41 36Z" fill="white" stroke="#282541" stroke-linecap="round"/>
    <path d="M17 34H31L29.2455 30.9923C28.8871 30.3778 28.2293 30 27.5179 30H20.4821C19.7707 30 19.1129 30.3778 18.7545 30.9923L17 34Z" fill="#282541"/>
    <path d="M9 26H14C15.6569 26 17 27.3431 17 29V30H12C10.3431 30 9 28.6569 9 27V26Z" fill="#13A538"/>
    <path d="M4 18H8C8.55228 18 9 18.4477 9 19V21H5C4.44772 21 4 20.5523 4 20V18Z" fill="#282541"/>
    <path d="M44 18H40C39.4477 18 39 18.4477 39 19V21H43C43.5523 21 44 20.5523 44 20V18Z" fill="#282541"/>
    <path d="M39 26H34C32.3431 26 31 27.3431 31 29V30H36C37.6569 30 39 28.6569 39 27V26Z" fill="#13A538"/>
</svg>
