<svg width="100" height="100" viewBox="0 0 100 100" fill="none" xmlns="http://www.w3.org/2000/svg">
    <g clip-path="url(#clip0_39_33)">
        <path d="M80 0H20C8.95375 0 0 8.95375 0 20V80C0 91.0462 8.95375 100 20 100H80C91.045 100 100 91.0462 100 80V20C100 8.95375 91.045 0 80 0Z" fill="#1AA54A"/>
        <path d="M57.9225 20.5987C54.2625 14.7437 45.7363 14.7437 42.0763 20.5987L14.5513 64.64C9.58753 72.5762 15.2963 82.8737 24.6563 82.8737C28.765 82.8737 32.585 80.7575 34.7613 77.2725L39.895 69.0625C44.5613 61.5937 55.4388 61.5937 60.1063 69.0625L65.2363 77.2725C67.4163 80.7575 71.2325 82.8737 75.3413 82.8737C84.7025 82.8737 90.41 72.5775 85.45 64.64L57.9238 20.5987H57.9225Z" fill="white"/>
    </g>
    <defs>
        <clipPath id="clip0_39_33">
            <rect width="100" height="100" fill="white"/>
        </clipPath>
    </defs>
</svg>
