<svg width="128" height="128" viewBox="0 0 128 128" fill="none" xmlns="http://www.w3.org/2000/svg">
    <g clip-path="url(#clip0_39_27)">
        <path d="M102.4 0H25.6C11.4608 0 0 11.4608 0 25.6V102.4C0 116.539 11.4608 128 25.6 128H102.4C116.538 128 128 116.539 128 102.4V25.6C128 11.4608 116.538 0 102.4 0Z" fill="#1AA54A"/>
        <path d="M74.1408 26.3664C69.456 18.872 58.5424 18.872 53.8576 26.3664L18.6256 82.7392C12.272 92.8976 19.5792 106.078 31.56 106.078C36.8192 106.078 41.7088 103.37 44.4944 98.9088L51.0656 88.4C57.0384 78.84 70.9616 78.84 76.936 88.4L83.5024 98.9088C86.2928 103.37 91.1776 106.078 96.4368 106.078C108.419 106.078 115.725 92.8992 109.376 82.7392L74.1424 26.3664H74.1408Z" fill="white"/>
    </g>
    <defs>
        <clipPath id="clip0_39_27">
            <rect width="128" height="128" fill="white"/>
        </clipPath>
    </defs>
</svg>
