<svg width="48" height="48" viewBox="0 0 48 48" fill="none" xmlns="http://www.w3.org/2000/svg">
    <rect x="8" y="4" width="24" height="40" rx="3" fill="white" stroke="#282541"/>
    <circle cx="32" cy="27" r="8" fill="white" stroke="#282541"/>
    <circle cx="32" cy="24" r="8" fill="white" stroke="#282541"/>
    <circle cx="32" cy="21" r="8" fill="white" stroke="#282541"/>
    <path d="M29 23.9605L29.8768 22.8969C29.8768 22.8969 30.8413 23.7193 32.0939 23.7193C32.7704 23.7193 33.3841 23.4123 33.3841 22.7763C33.3841 21.4605 29.1503 21.5921 29.1503 19.2346C29.1503 18.1053 30.1148 17.2281 31.5052 17.0307V16H32.5825V17.0088C34.0355 17.1184 34.7871 17.8092 34.7871 17.8092L34.0856 18.9605C34.0856 18.9605 33.2338 18.2807 32.119 18.2807C31.3674 18.2807 30.7787 18.6645 30.7787 19.2127C30.7787 20.5175 35 20.2873 35 22.7434C35 23.8618 34.1106 24.8158 32.5825 24.9912V26H31.5052V24.9912C29.8894 24.8268 29 23.9605 29 23.9605Z" fill="#13A538"/>
    <path d="M14 4H26L24.5528 6.89443C24.214 7.572 23.5215 8 22.7639 8H17.2361C16.4785 8 15.786 7.572 15.4472 6.89443L14 4Z" fill="#282541"/>
    <path d="M16 40H24" stroke="#282541" stroke-width="1.5" stroke-linecap="round"/>
</svg>
