<svg width="53" height="53" viewBox="0 0 53 53" fill="none" xmlns="http://www.w3.org/2000/svg">
    <g clip-path="url(#clip0_114_294)">
        <path d="M42.4 0H10.6C4.74549 0 0 4.74549 0 10.6V42.4C0 48.2545 4.74549 53 10.6 53H42.4C48.2538 53 53 48.2545 53 42.4V10.6C53 4.74549 48.2538 0 42.4 0Z" fill="white"/>
        <path d="M30.6989 10.9173C28.7591 7.81418 24.2402 7.81418 22.3004 10.9173L7.71215 34.2592C5.08137 38.4654 8.107 43.9231 13.0678 43.9231C15.2454 43.9231 17.27 42.8015 18.4235 40.9544L21.1443 36.6031C23.6175 32.6447 29.3825 32.6447 31.8563 36.6031L34.5752 40.9544C35.7306 42.8015 37.7532 43.9231 39.9309 43.9231C44.8923 43.9231 47.9173 38.4661 45.2885 34.2592L30.6996 10.9173H30.6989Z" fill="#1AA54A"/>
    </g>
    <defs>
        <clipPath id="clip0_114_294">
            <rect width="53" height="53" fill="white"/>
        </clipPath>
    </defs>
</svg>
