<svg width="42" height="32" viewBox="0 0 42 32" fill="none" xmlns="http://www.w3.org/2000/svg">
    <path d="M12 12L17.8836 6.80697C18.231 6.50032 18.6447 6.27833 19.0923 6.15839L36.7644 1.42318C37.2979 1.28024 37.8462 1.59682 37.9891 2.13029L39.8655 9.13282C40.1454 10.1776 39.8413 11.2922 39.0695 12.05L32.5 18.5L24.0805 25.2637C23.7559 25.5246 23.3804 25.7149 22.9782 25.8227L5.2356 30.5768C4.70213 30.7198 4.1538 30.4032 4.01085 29.8697L2.16059 22.9644C1.86689 21.8683 2.21679 20.7003 3.06475 19.9462L12 12Z" fill="white" stroke="#282541"/>
    <rect x="1" y="6" width="40" height="20" rx="1" fill="white" stroke="#282541"/>
    <path d="M5 13V10H8M5 19V22H8M37 13V10H34M37 19V22H34" stroke="#282541" stroke-linecap="round" stroke-linejoin="round"/>
    <ellipse cx="21" cy="16" rx="7" ry="8" fill="white" stroke="#282541"/>
    <path d="M18 18.9605L18.8768 17.8969C18.8768 17.8969 19.8413 18.7193 21.0939 18.7193C21.7704 18.7193 22.3841 18.4123 22.3841 17.7763C22.3841 16.4605 18.1503 16.5921 18.1503 14.2346C18.1503 13.1053 19.1148 12.2281 20.5052 12.0307V11H21.5825V12.0088C23.0355 12.1184 23.7871 12.8092 23.7871 12.8092L23.0856 13.9605C23.0856 13.9605 22.2338 13.2807 21.119 13.2807C20.3674 13.2807 19.7787 13.6645 19.7787 14.2127C19.7787 15.5175 24 15.2873 24 17.7434C24 18.8618 23.1106 19.8158 21.5825 19.9912V21H20.5052V19.9912C18.8894 19.8268 18 18.9605 18 18.9605Z" fill="#13A538"/>
</svg>
